<?xml version="1.0" encoding="utf-8"?>
<!-- Generator: Adobe Illustrator 22.0.1, SVG Export Plug-In . SVG Version: 6.00 Build 0)  -->
<svg version="1.1" id="Calque_1" xmlns="http://www.w3.org/2000/svg" xmlns:xlink="http://www.w3.org/1999/xlink" x="0px" y="0px"
	 viewBox="0 0 200 162.8" style="enable-background:new 0 0 200 162.8;" xml:space="preserve">
<style type="text/css">
	.st0{fill:#E0E5FF;}
</style>
<g>
	<path class="st0" d="M165.9,82.3c0,0-13-11.9-33.6-18.5c2.7-3.8,4.3-8.1,4.2-12.8c0-5.3-2.1-10.2-5.5-14.2c0.5-0.2,0.9-0.5,1.4-0.7
		c7.2-4.2,10.8-11.5,8-16.3c-2.8-4.8-10.9-5.2-18.2-1c-3.7,2.2-6.4,5.1-7.9,8.1c-3.2-0.8-6.7-1.3-10.2-1.3c-4.5,0-8.7,0.8-12.5,2.1
		c-0.3-2-0.9-4.1-1.9-6.2C86.1,13.9,79.2,9.6,74.2,12c-5,2.4-6.2,10.4-2.6,18c1.4,3.1,3.4,5.6,5.6,7.4c-3.3,4-5.2,8.9-5.2,14.1
		c0,4.7,1.6,9,4.4,12.8C55.8,70.9,43,83,43,83c-14.7,12.6,0.1,22.6,4.8,21.3c5-1.4,23.7-11.5,21.7-1.8S67.1,122,67.1,122
		c-6.9,2-10.1,12-7.2,22.3c2.9,10.4,10.9,17.2,17.8,15.3c4-1.1,6.8-5,7.8-10c0,0,20.1,10.5,38.5-0.2c1.1,5,3.9,8.8,7.9,9.9
		c6.9,1.9,14.8-5,17.7-15.5c2.8-10.4-0.5-20.4-7.5-22.3c0,0-0.5-9.9-2.6-19.5s16.8,0.3,21.7,1.6C166,104.9,180.8,94.7,165.9,82.3z"
		/>
	<path d="M69.4,32.8c-2.5-2-4.7-4.9-6.2-8.1c-1.9-4.1-2.6-8.4-2.1-12.2c0.6-4.2,2.7-7.3,5.8-8.7c6.2-2.9,14.3,1.7,18.5,10.6
		c1,2.2,1.7,4.5,2.1,6.8L83,21.7c-0.3-1.9-0.8-3.7-1.7-5.6c-3-6.4-8.8-10.2-12.6-8.4c-1.7,0.8-2.9,2.7-3.3,5.4
		c-0.4,3,0.2,6.4,1.7,9.7c1.3,2.7,3,4.9,5,6.6L69.4,32.8z"/>
	<path d="M125.6,32.5l-2-4c0.5-0.2,0.9-0.5,1.2-0.7c6.1-3.6,9.4-9.7,7.3-13.3c-2.1-3.7-9.1-3.7-15.1-0.2c-3.1,1.8-5.7,4.4-7,7.2
		l-4-1.9c1.7-3.5,4.8-6.8,8.7-9.1c8.4-4.9,17.7-4.1,21.2,1.8c3.5,5.9-0.4,14.4-8.8,19.4C126.7,32,126.2,32.2,125.6,32.5z"/>
	<path d="M63,115.9l-4.4-0.2c0-0.4,0.5-10.2,2.4-19.9c0.2-0.8,0.1-1.2,0-1.3c0,0,0,0,0,0c0,0-0.9-0.6-4.9,0.4
		c-2.9,0.8-6.3,2.2-9.1,3.3c-2.2,0.9-3.9,1.6-5.1,1.9c-3.6,1-9.9-2-12.6-7.2c-1.8-3.3-3.3-10.1,5.8-17.8c1-0.9,13.8-12.5,34.2-19.3
		l1.4,4.2c-19.8,6.5-32.5,18.2-32.6,18.3L38,78.4c-3.6,3-7.3,7.7-4.8,12.4c1.9,3.6,6.3,5.4,7.6,5c1-0.3,2.7-1,4.6-1.7
		c8.4-3.4,15.1-5.8,18.4-3.1c1,0.8,2.1,2.5,1.5,5.6C63.4,106,63,115.8,63,115.9z"/>
	<path d="M133.6,115.5c0-0.1-0.6-9.8-2.6-19.2c-0.7-3.1,0.4-4.7,1.4-5.6c3.3-2.8,10-0.5,18.5,2.8c1.9,0.7,3.6,1.4,4.6,1.7
		c1.3,0.3,5.7-1.5,7.5-5.1c2.5-4.8-1.3-9.4-4.9-12.4l-0.1-0.1c-0.1-0.1-12.9-11.7-32.8-18l1.3-4.2c20.5,6.5,33.4,18,34.4,18.9
		c9.2,7.7,7.7,14.4,6,17.8c-2.7,5.3-9,8.3-12.6,7.4c-1.2-0.3-2.9-1-5.1-1.9c-2.8-1.1-6.2-2.4-9.1-3.2c-4-1-4.9-0.4-4.9-0.4
		c0,0.1-0.1,0.5,0.1,1.3c2.1,9.7,2.6,19.5,2.7,19.9L133.6,115.5z"/>
	<path d="M69,155.9c-3.2,0-6.5-1.3-9.5-3.9c-3.7-3.2-6.6-7.9-8.1-13.3C48.1,127,52,116,60.2,113.6c4.1-1.2,8.5,0.1,12.4,3.5
		c3.7,3.2,6.6,7.9,8.1,13.3l0,0c3.3,11.7-0.5,22.7-8.7,25.1C71,155.8,70,155.9,69,155.9z M63.2,117.6c-0.6,0-1.2,0.1-1.8,0.2
		c-5.6,1.6-8.2,10.6-5.7,19.6c1.3,4.6,3.7,8.6,6.7,11.2c2.8,2.4,5.8,3.3,8.4,2.6c5.6-1.6,8.2-10.6,5.7-19.6l0,0
		c-1.3-4.6-3.7-8.6-6.7-11.2C67.6,118.6,65.3,117.6,63.2,117.6z"/>
	<path d="M98.1,72.8c-19,0.1-34.5-12.3-34.6-27.6c-0.1-15.3,15.3-27.9,34.3-28c19-0.1,34.5,12.3,34.6,27.6
		C132.5,60.1,117.1,72.7,98.1,72.8z M97.8,21.5c-16.6,0.1-30,10.7-29.9,23.6C67.9,58,81.5,68.5,98,68.4c16.6-0.1,30-10.7,29.9-23.6
		S114.3,21.4,97.8,21.5z"/>
	<circle cx="89.9" cy="38.5" r="4.8"/>
	<circle cx="105.9" cy="38.4" r="4.8"/>
	<path d="M128.1,155.6c-1,0-2-0.1-3-0.4c-4.1-1.1-7.3-4.4-8.9-9.4c-1.5-4.6-1.6-10.2-0.1-15.6l0,0c1.5-5.5,4.3-10.2,8-13.4
		c3.9-3.4,8.3-4.7,12.4-3.6c4.1,1.1,7.3,4.4,8.9,9.4c1.5,4.6,1.6,10.2,0.1,15.6c-1.5,5.5-4.3,10.2-8,13.4
		C134.5,154.2,131.3,155.6,128.1,155.6z M133.5,117.2c-2.1,0-4.4,1-6.6,2.9c-3,2.6-5.4,6.6-6.6,11.3l0,0c-1.2,4.6-1.2,9.3,0,13.1
		c1.2,3.5,3.3,5.8,5.9,6.5c2.6,0.7,5.6-0.2,8.3-2.7c3-2.6,5.4-6.6,6.6-11.3c1.2-4.6,1.2-9.3,0-13.1c-1.2-3.5-3.3-5.8-5.9-6.5
		C134.7,117.3,134.1,117.2,133.5,117.2z"/>
	<path d="M98.4,127c-10.5,0.1-19.1-11-19.2-24.7c-0.1-13.7,8.4-24.8,18.9-24.9s19.1,11,19.2,24.7C117.3,115.7,108.9,126.9,98.4,127z
		 M98.1,81.8c-8.1,0-14.6,9.2-14.5,20.4c0.1,11.2,6.7,20.3,14.7,20.3c8.1,0,14.6-9.2,14.5-20.4C112.8,90.9,106.2,81.8,98.1,81.8z"/>
	<path d="M98,63.3c-8.1,0-14.4-4.1-14.5-9.3c0-5.3,6.3-9.4,14.3-9.5c8.1,0,14.4,4.1,14.5,9.3C112.4,59.1,106.1,63.2,98,63.3z
		 M97.9,48.9c-5.7,0-10,2.7-10,5c0,2.4,4.3,5,10,4.9c5.7,0,10-2.7,10-5C107.9,51.5,103.6,48.8,97.9,48.9z"/>
	<path d="M100.2,60.5l-4.4,0l0-7.3l0.8-0.7c0.6-0.5,2.9-2,8.1-0.5l-1.3,4.2c-1.5-0.4-2.5-0.5-3.1-0.5L100.2,60.5z"/>
	<path d="M100.2,60.5l-4.4,0l0-4.7c-0.6,0-1.6,0.1-3.1,0.5l-1.3-4.2c5.2-1.6,7.5-0.1,8.1,0.4l0.8,0.7L100.2,60.5z"/>
	<path d="M101.1,142.4c-11.4,0.1-21.1-4.6-21.7-4.9l1.8-3.6c0.2,0.1,20.8,10,35.8-0.1l2.3,3.4C113.4,141,107,142.3,101.1,142.4z"/>
</g>
</svg>
