<?xml version="1.0" encoding="utf-8"?>
<!-- Generator: Adobe Illustrator 22.0.1, SVG Export Plug-In . SVG Version: 6.00 Build 0)  -->
<svg version="1.1" id="Calque_1" xmlns="http://www.w3.org/2000/svg" xmlns:xlink="http://www.w3.org/1999/xlink" x="0px" y="0px"
	 viewBox="0 0 163.4 162.8" style="enable-background:new 0 0 163.4 162.8;" xml:space="preserve">
<style type="text/css">
	.st0{fill:#83A5EA;}
	.st1{fill:#DB8D8D;}
	.st2{fill:#FFFFFF;}
</style>
<g>
	<g>
		<g>
			<path class="st0" d="M67.3,108c-13.3,2.8-26.7,4.4-40,1.1c0-25.7,0-51.3,0-77c13.3,3.3,26.7,1.7,40-1.1
				C67.3,56.6,67.3,82.3,67.3,108z"/>
			<path class="st1" d="M147.3,104.7c-13.3-6.5-26.7-7.1-40-5.3c0-25.7,0-51.3,0-77c13.3-1.7,26.7-1.1,40,5.3
				C147.3,53.4,147.3,79,147.3,104.7z"/>
			<path class="st2" d="M107.3,99.4c-13.3,1.7-26.7,5.8-40,8.6c0-25.7,0-51.3,0-77c13.3-2.8,26.7-6.8,40-8.6
				C107.3,48,107.3,73.7,107.3,99.4z"/>
			<path d="M139.3,93.5c-41.3-13.2-82.7,23.3-124,3.2c0-27,0-54,0-81c41.3,20.1,82.7-16.4,124-3.2C139.3,39.5,139.3,66.5,139.3,93.5
				z M19.3,94.5c38.7,15.5,77.3-15.6,116-6.1c0-24.3,0-48.7,0-73c-38.7-9.5-77.3,21.6-116,6.1C19.3,45.8,19.3,70.2,19.3,94.5z"/>
		</g>
	</g>
	<path d="M17.3,146.7L17.3,146.7c-1.1,0-2-0.9-2-2v-125c0-1.1,0.9-2,2-2h0c1.1,0,2,0.9,2,2v125C19.3,145.8,18.4,146.7,17.3,146.7z"
		/>
</g>
</svg>
