<?xml version="1.0" encoding="utf-8"?>
<!-- Generator: Adobe Illustrator 22.0.1, SVG Export Plug-In . SVG Version: 6.00 Build 0)  -->
<svg version="1.1" id="Calque_1" xmlns="http://www.w3.org/2000/svg" xmlns:xlink="http://www.w3.org/1999/xlink" x="0px" y="0px"
	 viewBox="0 0 163.4 162.8" style="enable-background:new 0 0 163.4 162.8;" xml:space="preserve">
<style type="text/css">
	.st0{fill:#FFDACA;}
</style>
<g>
	<path class="st0" d="M130.2,69.2c-0.3,0.5-0.5,0.8-0.7,1c-0.1,0.2-0.2,0.3-0.4,0.5c0-0.1,1.6-2.6,1.6-2.6s4.5-8.3,10.5-22
		c3.3-7.5-0.2-11.5-4.7-12.6c-1.7-1.1-3.2-1.1-4.9-0.1c-1.5,0.3-2.9,0.9-3.9,1.9c0.4-1.1,0.8-2.2,1.2-3.1c5-9.7-11-20.7-19.1-4.8
		c0,0-0.1,0.1-0.2,0.4c-0.2,0.3-0.4,0.7-0.6,1c3.3-8.1,0-14-5.1-14.6c-0.5-0.1-1-0.1-1.5,0C99.5,14.4,96,16.5,93,21
		c-8.6,13-21.9,34.8-23,36.7c0-0.4,0.1-0.7,0.3-1.1c4.6-10.9-4.8-25.1-12.6-16.8C49.9,48.2,43.8,60.3,38,71.6
		c-0.9,1.7-1.8,3.5-2.8,5.5c-2.7,5.2-5.4,11.3-7,17.7c-2.1,7.8-2.8,16.1,0.1,23.6c0.6,1.6,1.4,3.1,2.4,4.7
		c2.9,5.5,7.6,10.9,14.6,15.8c13.9,9.7,25,14,33.4,15.8c1.6,0.5,3.2,0.9,4.7,1.3c20.7,4.7,31.7-20.6,37.5-29.9
		c5.8-9.4,18.8-39,22.6-46.4C149,69,138.8,56.4,130.2,69.2z M70.6,59.5c0,0.1-0.1,0.1-0.1,0.2c-0.3-0.6-0.5-1.1-0.5-1.7L70.6,59.5z"
		/>
	<path d="M134.8,56.9c-1.6-0.9-3.6-1.4-5.8-0.8c1.8-3.8,4.3-8.9,7-15.1c4.2-9.5-1.6-13.4-3.5-14.4c-2.5-1.3-5.4-1.6-8.1-1.1
		c0.9-2.9,0.5-6-1.2-8.7c-2.3-3.5-6.2-5.5-10.2-5.3c-1.8,0.1-4.8,0.7-7.7,3.4c-0.5-3.6-2.4-6.2-4.8-7.6c-4.3-2.4-11-1.3-16.2,6.7
		c-5.5,8.4-13,20.5-18,28.5c-0.5-5.1-3.1-9.6-6.4-11.8c-3.6-2.3-7.6-1.6-10.8,1.8c-7.7,8.3-13.7,20-19.5,31.4l-0.4,0.9
		c-6.1,11.8-16.2,31.6-9.8,48.4c3,7.8,11.1,16.3,22.9,23.9c10.6,6.9,23.2,12.4,33.7,14.8c1.9,0.4,3.7,0.6,5.4,0.6
		c16.3,0,26.2-17.5,31.8-27.4c0.9-1.6,1.7-3,2.4-4.1c3.9-6.3,10.9-21.3,16.5-33.4c2.7-5.8,5-10.8,6.2-13.2
		C142,67.3,139.5,59.6,134.8,56.9z M134.8,72.6c-1.3,2.5-3.6,7.5-6.3,13.4c-5.2,11.3-12.4,26.8-16.2,32.9c-0.7,1.2-1.5,2.6-2.5,4.2
		c-6.1,10.7-16.2,28.6-32.9,24.8c-25-5.7-49-23.8-53.7-36.3c-5.8-15.1,3.8-33.9,9.6-45.1l0.4-0.9c5.7-11.1,11.5-22.5,18.9-30.5
		c1.9-2,3.8-2.4,5.7-1.2c3.7,2.4,6.1,9.8,3.6,15.8c-4.5,10.7-14.1,29.8-14.2,30c-0.4,0.8-0.2,1.8,0.4,2.4c0,0,4.3,4,7.9,11.4
		c3.5,7.2,0.4,21.5,0.4,21.6c-0.2,1.1,0.4,2.1,1.5,2.4c1.1,0.2,2.1-0.4,2.4-1.5c0.1-0.6,3.4-15.8-0.7-24.2
		c-2.9-5.9-6.1-9.7-7.7-11.5c2.1-4.2,8.8-17.7,12.8-27c0.1-0.1,0.2-0.3,0.3-0.4c0.1-0.2,14.2-23.3,23.1-36.8
		c3.8-5.8,8.2-6.9,10.9-5.4c2.7,1.5,4.2,6.1,1.2,12.4c-6.7,14-28.2,53.1-28.4,53.5c-0.5,1-0.2,2.2,0.8,2.7c0.3,0.2,0.6,0.2,1,0.2
		c0.7,0,1.4-0.4,1.8-1c0.2-0.4,21.7-39.5,28.5-53.7c0.3-0.7,0.6-1.3,0.8-1.9c0.2-0.2,0.4-0.4,0.5-0.6c2.2-4.3,5.2-6.7,8.5-6.9
		c2.6-0.1,5.2,1.2,6.7,3.5c0.8,1.2,1.8,3.6,0.4,6.4C110.2,45,89.8,83.1,89.6,83.5c-0.5,1-0.2,2.2,0.8,2.7c0.3,0.2,0.6,0.2,0.9,0.2
		c0.7,0,1.4-0.4,1.8-1.1C93.3,85,111,52,121.6,31.5c0,0,0,0,0,0c1.4-2.3,6-3,9.1-1.4c3.9,2,3,6.1,1.7,9.3
		C126.5,52.7,122,61.1,122,61.2c-0.1,0.2-0.2,0.4-0.2,0.5c-0.1,0.1-0.2,0.3-0.3,0.4c-8.5,12.8-17.6,31.6-17.7,31.8
		c-0.5,1-0.1,2.2,0.9,2.7c1,0.5,2.2,0.1,2.7-0.9c0.1-0.2,9-18.7,17.4-31.3c2.6-4,5.5-5.4,7.9-4C135.8,62.1,137.3,67.7,134.8,72.6z"
		/>
</g>
</svg>
