<?xml version="1.0" encoding="utf-8"?>
<!-- Generator: Adobe Illustrator 22.0.1, SVG Export Plug-In . SVG Version: 6.00 Build 0)  -->
<svg version="1.1" id="Calque_1" xmlns="http://www.w3.org/2000/svg" xmlns:xlink="http://www.w3.org/1999/xlink" x="0px" y="0px"
	 viewBox="0 0 163.4 162.8" style="enable-background:new 0 0 163.4 162.8;" xml:space="preserve">
<style type="text/css">
	.st0{fill:#9FD6A9;}
</style>
<g>
	<path class="st0" d="M140.3,20.2c-35,12-55.9,29.2-67.9,47.5C59.1,54.4,45.9,46,45.9,46c-33,64.6,4.3,98.5,22.4,110.3
		c2.7,1.8,5.9,2.4,8.9,1.9C172.4,156.7,140.3,20.2,140.3,20.2z"/>
	<path d="M64.8,148.5c-9.1,0-17.1-6.3-19.1-15.2l0,0c-6.3-27.9-10.9-96.1,81.7-127.7l2.5-0.9l0.6,2.6c0,0.2,4.5,19.6,5.2,43.5
		c0.9,32.3-5.3,57.2-18.3,73.9c-12,15.4-29.6,23.3-52.3,23.7C65,148.5,64.9,148.5,64.8,148.5z M50.4,132.3
		c1.5,6.6,7.5,11.4,14.3,11.4c0.1,0,0.2,0,0.2,0c21.2-0.3,37.5-7.7,48.6-21.8c15.3-19.7,17.9-49.4,17.3-70.8
		c-0.5-18.3-3.3-33.8-4.5-39.8C95.6,22.3,33,54.7,50.4,132.3L50.4,132.3z"/>
	<path d="M63.1,148.7c-2.9,0-5.8-0.8-8.3-2.5l0,0c-18.3-12-57.1-46.9-23.2-113.4l1.2-2.4l2.3,1.4c0.5,0.3,12.9,8.3,25.9,21
		C78.6,70.1,88.5,87,90.3,103.1c1.6,14.9-3.8,28.7-16.1,41C71.1,147.1,67.1,148.7,63.1,148.7z M57.5,142.1c4.1,2.7,9.7,2.1,13.2-1.4
		c11.2-11.3,16.2-23.7,14.7-37c-2-18.6-16.2-36-27.8-47.3c-9.5-9.3-18.8-16-22.9-18.9C23.9,59.8,7.8,109.7,57.5,142.1z"/>
</g>
</svg>
