<?xml version="1.0" encoding="utf-8"?>
<!-- Generator: Adobe Illustrator 22.0.1, SVG Export Plug-In . SVG Version: 6.00 Build 0)  -->
<svg version="1.1" id="Calque_1" xmlns="http://www.w3.org/2000/svg" xmlns:xlink="http://www.w3.org/1999/xlink" x="0px" y="0px"
	 viewBox="0 0 200 162.8" style="enable-background:new 0 0 200 162.8;" xml:space="preserve">
<style type="text/css">
	.st0{fill:#F9E0FF;}
</style>
<rect x="29.2" y="30.8" class="st0" width="164.8" height="125.2"/>
<path d="M88.3,7.5H5.9v1.9v11.2v99v13.1H19h69.3h69.3h13.1v-13.1v-99V9.4V7.5H88.3z M88.3,20.6h61.4L88.3,63.8L27,20.6H88.3z M19,31
	l48.8,34.4L19,109.9V31z M88.3,119.5H27.9l50.9-46.4l9.5,6.7l0,0l0,0l9.5-6.7l50.9,46.4H88.3z M157.6,109.9l-48.8-44.5L157.6,31
	V109.9z"/>
</svg>
