<?xml version="1.0" encoding="utf-8"?>
<!-- Generator: Adobe Illustrator 22.0.1, SVG Export Plug-In . SVG Version: 6.00 Build 0)  -->
<svg version="1.1" id="Calque_1" xmlns="http://www.w3.org/2000/svg" xmlns:xlink="http://www.w3.org/1999/xlink" x="0px" y="0px"
	 viewBox="0 0 200 162.8" style="enable-background:new 0 0 200 162.8;" xml:space="preserve">
<style type="text/css">
	.st0{fill:#F9E0FF;}
</style>
<polygon class="st0" points="64.3,64.4 53.2,158.4 163.8,158.4 152.7,64.4 "/>
<g>
	<path d="M135.1,43.9H113V27.3c0-12.2-9.9-22.1-22.1-22.1s-22.1,9.9-22.1,22.1v16.6H46.7l-11.1,94h110.6L135.1,43.9z M74.3,27.3
		c0-9.1,7.4-16.6,16.6-16.6s16.6,7.4,16.6,16.6v16.6H74.3V27.3z M48,126.8l8.5-71.9h12.3v8.3c0,1.5,1.2,2.8,2.8,2.8
		c1.5,0,2.8-1.2,2.8-2.8v-8.3h33.2v8.3c0,1.5,1.2,2.8,2.8,2.8c1.5,0,2.8-1.2,2.8-2.8v-8.3h12.3l8.5,71.9H48z"/>
	<path d="M71.5,82.1c-3.3,0-6,2.7-6,6c0,3.3,2.7,6,6,6c3.3,0,6-2.7,6-6C77.5,84.8,74.8,82.1,71.5,82.1z"/>
	<circle cx="110.2" cy="88.1" r="6"/>
</g>
</svg>
